<svg xmlns="http://www.w3.org/2000/svg" width="271" height="58" viewBox="0 0 271 58">
  <g fill="none" transform="translate(12 18)">
    <path fill="#005CFF" d="M3.84,5.44 L3.84,10.88 L12.8,10.88 L12.8,14.528 L3.84,14.528 L3.84,20.544 L13.76,20.544 L13.76,24.192 L-3.55271368e-15,24.192 L-3.55271368e-15,1.792 L13.568,1.792 L13.568,5.44 L3.84,5.44 Z M21.728,24.192 L21.728,5.44 L15.552,5.44 L15.552,1.792 L31.744,1.792 L31.744,5.44 L25.568,5.44 L25.568,24.192 L21.728,24.192 Z M47.968,10.912 L47.968,1.792 L51.808,1.792 L51.808,24.192 L47.968,24.192 L47.968,14.56 L38.4,14.56 L38.4,24.192 L34.56,24.192 L34.56,1.792 L38.4,1.792 L38.4,10.912 L47.968,10.912 Z"/>
    <path fill="#0C1B82" d="M66.624,20.992 C70.56,20.992 72.672,18.24 72.672,18.24 L75.232,20.768 C75.232,20.768 72.288,24.576 66.624,24.576 C60.16,24.576 55.264,19.616 55.264,12.992 C55.264,6.368 60.16,1.408 66.624,1.408 C72,1.408 74.912,4.928 74.912,4.928 L72.32,7.456 C72.32,7.456 70.304,4.992 66.624,4.992 C62.208,4.992 59.168,8.672 59.168,12.992 C59.168,17.312 62.208,20.992 66.624,20.992 Z M85.504,8.64 C86.88,8.64 88.128,9.12 88.128,9.12 L86.784,12.576 C86.784,12.576 86.08,12.224 84.96,12.224 C82.624,12.224 81.568,14.272 81.568,14.272 L81.568,24.192 L77.728,24.192 L77.728,9.024 L81.376,9.024 L81.376,11.232 C81.376,11.232 82.688,8.64 85.504,8.64 Z M96.192,8.64 C100.352,8.64 103.84,11.872 103.84,16.544 C103.84,16.832 103.84,17.408 103.808,17.984 L92.48,17.984 C92.768,19.328 94.336,21.056 96.736,21.056 C99.392,21.056 100.896,19.52 100.896,19.52 L102.816,22.4 C102.816,22.4 100.416,24.576 96.736,24.576 C92.128,24.576 88.576,21.056 88.576,16.608 C88.576,12.16 91.808,8.64 96.192,8.64 Z M92.48,15.2 L100,15.2 C99.936,13.888 98.72,12.128 96.192,12.128 C93.728,12.128 92.608,13.856 92.48,15.2 Z M121.152,1.0658141e-14 L121.152,24.192 L117.6,24.192 L117.6,22.208 C117.6,22.208 116.288,24.576 113.024,24.576 C109.088,24.576 105.632,21.28 105.632,16.608 C105.632,11.936 109.088,8.64 113.024,8.64 C115.904,8.64 117.312,10.624 117.312,10.624 L117.312,1.0658141e-14 L121.152,1.0658141e-14 Z M117.312,18.88 L117.312,14.336 C117.312,14.336 116.224,12.224 113.696,12.224 C111.104,12.224 109.536,14.112 109.536,16.608 C109.536,19.104 111.104,20.992 113.696,20.992 C116.224,20.992 117.312,18.88 117.312,18.88 Z M126.048,24.192 L126.048,9.024 L129.888,9.024 L129.888,24.192 L126.048,24.192 Z M125.44,4.128 C125.44,2.72 126.56,1.6 127.968,1.6 C129.376,1.6 130.496,2.72 130.496,4.128 C130.496,5.536 129.376,6.656 127.968,6.656 C126.56,6.656 125.44,5.536 125.44,4.128 Z M133.12,12.48 L133.12,9.024 L136.096,9.024 L136.096,4.512 L139.936,4.512 L139.936,9.024 L144.512,9.024 L144.512,12.48 L139.936,12.48 L139.936,18.592 C139.936,20.448 140.896,20.992 141.92,20.992 C142.784,20.992 143.52,20.448 143.52,20.448 L144.928,23.584 C144.928,23.584 143.488,24.576 141.28,24.576 C138.336,24.576 136.096,22.432 136.096,19.2 L136.096,12.48 L133.12,12.48 Z"/>
    <path fill="#005CFF" d="M159.296,18.336 C159.296,16.448 157.856,15.776 155.2,14.848 C151.904,13.696 148.192,11.904 148.192,7.744 C148.192,4.576 151.008,1.408 155.52,1.408 C160.192,1.408 162.816,4.96 162.816,4.96 L160.16,7.584 C160.16,7.584 158.304,5.056 155.52,5.056 C153.6,5.056 152.096,6.24 152.096,7.744 C152.096,9.696 153.856,10.304 156.928,11.456 C160.352,12.736 163.2,14.272 163.2,18.336 C163.2,22.4 159.616,24.576 155.392,24.576 C149.792,24.576 147.2,20 147.2,20 L150.08,17.568 C150.08,17.568 152,20.928 155.392,20.928 C157.312,20.928 159.296,20.16 159.296,18.336 Z M173.28,8.64 C177.44,8.64 180.928,11.872 180.928,16.544 C180.928,16.832 180.928,17.408 180.896,17.984 L169.568,17.984 C169.856,19.328 171.424,21.056 173.824,21.056 C176.48,21.056 177.984,19.52 177.984,19.52 L179.904,22.4 C179.904,22.4 177.504,24.576 173.824,24.576 C169.216,24.576 165.664,21.056 165.664,16.608 C165.664,12.16 168.896,8.64 173.28,8.64 Z M169.568,15.2 L177.088,15.2 C177.024,13.888 175.808,12.128 173.28,12.128 C170.816,12.128 169.696,13.856 169.568,15.2 Z M191.52,8.64 C192.896,8.64 194.144,9.12 194.144,9.12 L192.8,12.576 C192.8,12.576 192.096,12.224 190.976,12.224 C188.64,12.224 187.584,14.272 187.584,14.272 L187.584,24.192 L183.744,24.192 L183.744,9.024 L187.392,9.024 L187.392,11.232 C187.392,11.232 188.704,8.64 191.52,8.64 Z M194.272,9.024 L198.528,9.024 L202.368,17.28 L206.208,9.024 L210.336,9.024 L202.304,24.96 L194.272,9.024 Z M212.928,24.192 L212.928,9.024 L216.768,9.024 L216.768,24.192 L212.928,24.192 Z M212.32,4.128 C212.32,2.72 213.44,1.6 214.848,1.6 C216.256,1.6 217.376,2.72 217.376,4.128 C217.376,5.536 216.256,6.656 214.848,6.656 C213.44,6.656 212.32,5.536 212.32,4.128 Z M228.352,20.992 C230.944,20.992 232.096,19.136 232.096,19.136 L234.624,21.696 C234.624,21.696 232.448,24.576 228.352,24.576 C223.808,24.576 220.192,21.056 220.192,16.608 C220.192,12.128 223.808,8.64 228.352,8.64 C232.416,8.64 234.56,11.456 234.56,11.456 L231.904,13.824 C231.904,13.824 230.656,12.224 228.352,12.224 C225.76,12.224 224.096,14.24 224.096,16.608 C224.096,18.976 225.76,20.992 228.352,20.992 Z M243.712,8.64 C247.872,8.64 251.36,11.872 251.36,16.544 C251.36,16.832 251.36,17.408 251.328,17.984 L240,17.984 C240.288,19.328 241.856,21.056 244.256,21.056 C246.912,21.056 248.416,19.52 248.416,19.52 L250.336,22.4 C250.336,22.4 247.936,24.576 244.256,24.576 C239.648,24.576 236.096,21.056 236.096,16.608 C236.096,12.16 239.328,8.64 243.712,8.64 Z M240,15.2 L247.52,15.2 C247.456,13.888 246.24,12.128 243.712,12.128 C241.248,12.128 240.128,13.856 240,15.2 Z"/>
  </g>
</svg>
