<svg xmlns="http://www.w3.org/2000/svg" width="75" height="35" viewBox="0 0 75 35">
  <path fill="#53B2FF" d="M7.65813725,28.2214675 L6.28152427,28.2214675 L1,9.07638851 L6.17272754,9.07638851 L8.65937786,17.9604159 L16.7132806,4.52774311 L18.8284292,1 L24.0011568,1 L22.2282315,3.95304228 L7.65813725,28.2214675 Z M31.3588435,27.3734467 L19.5950599,27.3734467 L22.7190225,8.63218715 L34.0239351,8.63218715 L33.3383596,12.745088 L26.2884326,12.745088 L25.8572974,15.3315514 L32.0729136,15.3315514 L31.3873381,19.4444523 L25.1717219,19.4444523 L24.5285532,23.3029469 L32.0373512,23.3029469 L31.3588435,27.3734467 Z M65.8286618,31.4439465 C62.0976957,33.055186 57.8547721,33.7336026 52.944244,31.9103579 C49.5199574,30.6807278 46.0298314,28.0942644 40.8976604,20.8436866 L39.6879096,20.8436866 L38.5994702,27.3734467 L34.3444846,27.3734467 L37.4684472,8.63218715 L44.1429344,8.63218715 C47.9807645,8.63218715 49.9967109,11.3034526 49.4312878,14.6955358 C49.0991018,16.6883847 47.8781361,18.2572232 45.8999139,19.6140564 C47.0843142,21.267697 48.1513269,22.6245302 50.1615879,24.8293843 C52.6222698,27.5854519 54.7526832,29.0694883 57.5950257,29.5358997 C61.3685545,30.1719153 63.233692,29.4934987 65.0705583,28.9846862 L65.8286618,31.4439465 Z M45.0858034,14.7379369 C45.2837015,13.5507078 44.4238842,12.702687 42.8386935,12.702687 L41.0449251,12.702687 L40.3664174,16.7731868 L41.9098925,16.7731868 C43.328221,16.7731868 44.8949731,15.8827649 45.0858034,14.7379369 Z M72.8494385,16.0261208 C71.9023548,21.7078602 66.5163671,25.9903652 60.7596219,25.9903652 C54.6691524,25.9903652 51.0028669,21.7078602 51.9499506,16.0261208 C52.904102,10.3019805 58.2971575,5.97707442 64.0956182,5.97707442 C70.1443722,5.97707442 73.8035899,10.3019805 72.8494385,16.0261208 Z M68.4275907,16.0261208 C68.9788782,12.7188397 66.9000129,10.1747774 63.3959071,10.1747774 C60.1003791,10.1747774 56.9230858,12.7188397 56.3717983,16.0261208 C55.8275786,19.2910009 57.9135117,21.7926622 61.459333,21.7926622 C64.754861,21.7926622 67.883371,19.2910009 68.4275907,16.0261208 Z"/>
</svg>
