<svg xmlns="http://www.w3.org/2000/svg" width="88" height="40" viewBox="0 0 88 40">
  <defs>
    <linearGradient id="ecs-logo-a" x1="50%" x2="50%" y1="0%" y2="100%">
      <stop offset="0%" stop-color="#35B4F1"/>
      <stop offset="100%" stop-color="#17B3F8"/>
    </linearGradient>
  </defs>
  <path fill="url(#ecs-logo-a)" d="M15.239708,31.2135932 L13.8570803,31.2135932 L2,4 L7.19532847,4 L14.5274453,20.9555098 L21.9014599,4 L27.0967883,4 L15.239708,31.2135932 Z M39.899562,31.3750743 L28.0843796,31.3750743 L28.0843796,12.6392359 L39.4386861,12.6392359 L39.4386861,16.7509471 L32.3579562,16.7509471 L32.3579562,19.3366623 L38.6007299,19.3366623 L38.6007299,23.4483734 L32.3579562,23.4483734 L32.3579562,27.3057519 L39.899562,27.3057519 L39.899562,31.3750743 Z M78.1941606,35.4443966 C74.7166423,37.05517 70.5687591,37.7333904 65.3315328,35.9106731 C61.6864234,34.6813987 57.7480292,32.0956834 51.379562,24.847203 L50.1645255,24.847203 L50.1645255,31.3750743 L45.8909489,31.3750743 L45.8909489,12.6392359 L52.5945985,12.6392359 C56.4491971,12.6392359 58.9211679,15.3097287 58.9211679,18.7008307 C58.9211679,20.6931031 57.9575182,22.2614878 56.1978102,23.6179285 C57.6642336,25.2710907 58.9630657,26.6275315 61.3512409,28.8317478 C64.2840876,31.5870181 66.6722628,33.0706252 69.6051095,33.5369018 C73.5016058,34.1727334 75.2613139,33.494513 77.0210219,32.9858477 L78.1941606,35.4443966 Z M54.5637956,18.7432195 C54.5637956,17.5563338 53.5582482,16.7085583 51.9661314,16.7085583 L50.1645255,16.7085583 L50.1645255,20.7778806 L51.7147445,20.7778806 C53.1392701,20.7778806 54.5637956,19.8877164 54.5637956,18.7432195 Z M84,18.0125177 C84,23.6926135 79.3074453,27.9738797 73.5255474,27.9738797 C67.4084672,27.9738797 63.0091971,23.6926135 63.0091971,18.0125177 C63.0091971,12.2900332 67.7017518,7.96637818 73.5255474,7.96637818 C79.6007299,7.96637818 84,12.2900332 84,18.0125177 Z M79.5588321,18.0125177 C79.5588321,14.7061933 77.0449635,12.1628669 73.5255474,12.1628669 C70.2156204,12.1628669 67.450365,14.7061933 67.450365,18.0125177 C67.450365,21.2764534 69.9642336,23.7773911 73.5255474,23.7773911 C76.8354745,23.7773911 79.5588321,21.2764534 79.5588321,18.0125177 Z"/>
</svg>
