<svg xmlns="http://www.w3.org/2000/svg" xmlns:xlink="http://www.w3.org/1999/xlink" width="268" height="177" viewBox="0 0 268 177">
  <defs>
    <linearGradient id="vero-logo-a" x1="25.41%" x2="66.784%" y1="2.025%" y2="83.75%">
      <stop offset="0%" stop-color="#F90DFF"/>
      <stop offset="100%" stop-color="#2800FF"/>
    </linearGradient>
    <path id="vero-logo-c" d="M59.7892408,114 L56.3179566,114 L43,65.4717401 L56.0436134,65.4717401 L62.3139815,87.9906542 L82.6228017,53.9419968 L87.9563866,45 L101,45 L96.5293698,52.4852657 L59.7892408,114 Z M120.165899,112 L90,112 L98.010785,65 L127,65 L125.241977,75.3144796 L107.163832,75.3144796 L106.058271,81.800905 L121.996991,81.800905 L120.238968,92.1153846 L104.300248,92.1153846 L102.650969,101.791855 L121.905798,101.791855 L120.165899,112 Z M208,122.104728 C198.519768,126.138147 187.738674,127.836429 175.261224,123.272297 C166.560253,120.194161 157.691986,113.719461 144.65135,95.5690736 L141.577423,95.5690736 L138.811743,111.915037 L128,111.915037 L135.937861,65 L152.897458,65 C162.649227,65 167.771664,71.6869849 166.334947,80.1783942 C165.490876,85.1670972 162.388452,89.094374 157.361871,92.4909377 C160.371383,96.6304998 163.082619,100.027064 168.190609,105.54648 C174.443101,112.44575 179.856394,116.160741 187.078669,117.32831 C196.667051,118.920449 201.406288,117.222167 206.07369,115.948456 L208,122.104728 Z M154.929103,79.5 C155.429326,76.2916667 153.255982,74 149.249126,74 L144.715051,74 L143,85 L146.901413,85 C150.486495,85 154.446745,82.59375 154.929103,79.5 Z M225.616464,82.6080508 C223.203891,97.0868644 209.483784,108 194.819221,108 C179.304538,108 169.965149,97.0868644 172.377723,82.6080508 C174.8083,68.0211864 188.546411,57 203.317239,57 C218.725658,57 228.047041,68.0211864 225.616464,82.6080508 Z M213.776675,82.6058394 C215.174087,74.350365 209.90455,68 201.022293,68 C192.668742,68 184.614895,74.350365 183.217483,82.6058394 C181.837987,90.7554745 187.12544,97 196.113438,97 C204.466989,97 212.397179,90.7554745 213.776675,82.6058394 Z"/>
    <filter id="vero-logo-b" width="115.3%" height="134.6%" x="-7.7%" y="-12.3%" filterUnits="objectBoundingBox">
      <feOffset dy="4" in="SourceAlpha" result="shadowOffsetOuter1"/>
      <feGaussianBlur in="shadowOffsetOuter1" result="shadowBlurOuter1" stdDeviation="4"/>
      <feColorMatrix in="shadowBlurOuter1" values="0 0 0 0 0.301810537   0 0 0 0 0.097116707   0 0 0 0 0.758435236  0 0 0 1 0"/>
    </filter>
  </defs>
  <g fill="none" fill-rule="evenodd">
    <rect width="258" height="166" x="5" y="6" fill="url(#vero-logo-a)" rx="36"/>
    <g fill-rule="nonzero">
      <use fill="#000" filter="url(#vero-logo-b)" xlink:href="#vero-logo-c"/>
      <use fill="#FFF" xlink:href="#vero-logo-c"/>
    </g>
  </g>
</svg>
